<svg xmlns="http://www.w3.org/2000/svg" version="1.1" width="600px" height="600px" viewBox="0 0 200 200" style="overflow:hidden!important;"><g id="svga-group-wrapper"><g id="svga-group-backs-single"></g><g id="svga-group-humanwrap-move" transform="matrix(1,0,0,1,0,0)"><g id="svga-group-humanwrap" transform="matrix(0.9999999,0,0,0.9999999,0.000010000000372656359,0.00001202000045452678)"><g id="svga-group-hair-back-move" transform="matrix(1,-2.636779683484747e-16,2.636779683484747e-16,1,-4.263256414560601e-14,2.842170943040401e-14)"><g id="svga-group-hair-back"></g></g><g id="svga-group-humanbody-back"><path id="SvgjsPath11334" d="m170 180.3-27.3-6.9-18-9.9-1.5-28.2H76.8l-1.5 28.2-18 9.9-27.3 6.9-9.1 19.7-3 20h164.2l-3-20z" fill="#e4af93" stroke-width="none" opacity="1" stroke="none"></path><path id="SvgjsPath11335" d="m76.8 135.3-1.5 28.2-18 9.9-27.3 6.9-9.1 19.7-3 20h14.6v-20l2.7-17.7 23.8-6.4 24.7-8.3 3.5-32.3z" fill="#c57e58" stroke-width="none" opacity="1" stroke="none"></path></g><g id="svga-group-chinshadow-single"><path id="SvgjsPath11330" d="m121.5 149.1 2.2-3.8-.5-10H76.8l-.8 15.9 13.8 9.6h14.8z" fill="#b6683f" stroke-width="none" opacity="1" stroke="none"></path></g><g id="svga-group-humanbody-front"><path id="SvgjsPath11336" d="m92.8 168.3 2 7.9 6.9 4.6s-8.5-3-8.7-3.6c-.2-.6-.2-8.9-.2-8.9z" fill="#c57e58" stroke-width="none" opacity="1" stroke="none"></path></g><g id="svga-group-clothes-single"><path id="SvgjsPath14462" d="m182.9 220-1.4-18.2-4.8-16.9-4.8-5.3-27.5-7-18.1-9.6-.2-10.9-2-.9-.6 3.2-11.2 4.5s-9 2.4-9.3 2.4-1.9 2.3-1.9 2.3l-.8 7.9h-.5l-.8-7.9s-1.7-2.3-1.9-2.3-9.3-2.4-9.3-2.4l-11.2-4.5-.5-3.2-2 .9-.2 10.9-18.1 9.6-27.5 7-4.8 5.3-4.8 16.9-1.6 18.2h165.8z" fill="#164655" stroke-width="none" opacity="1"></path><path id="SvgjsPath14463" d="M162.5 193.4s-3.1 13-3.1 13.6.2 12.4.2 12.4l1.2-12.8 2.9-13.2 5.8-12-7 12zm-55.8-20.6h-13s-12.6-3.9-13.2-3.9c-.1 0-.2-.1-.3-.1l1.2-12.6-4.8-1.9-.6-3.2-2 .9-.2 10.9-18.1 9.6-27.5 7-4.8 5.3-4.8 16.9-1.5 18.3h12.4v-27.9l2.3-5.9 4.1 7 4.1 14 1.2 12.8.2-13.6-4.4-14.2-5-6.6 27.5-7.9 20.6-8.2 12.9 4.4h6.4l.4 46.2h1.8v-46.2h5.2l13-3.5 6.2-5.4-6.6 4.7-12.7 3.1z" fill="#0b3846" stroke-width="none" opacity="1"></path><path id="SvgjsPath14464" d="M92.4 180.8h15.4v2.8H92.4v-2.8zm0 16.4h15.4v2.8H92.4v-2.8zm0 14.3h15.4v2.8H92.4v-2.8z" fill="#032a36" stroke-width="none" opacity="1"></path></g><g id="svga-group-head" transform="matrix(1,-2.636779683484747e-16,2.636779683484747e-16,1,-4.263256414560601e-14,2.842170943040401e-14)"><g id="svga-group-ears-left-move" transform="matrix(1,0,0,1,0,0)"><g id="svga-group-ears-left"><path id="SvgjsPath11232" d="M63.1 91.8s-6-.7-10.6-3.7c0 0-3.5 9.4-4 14.4 0 0 6.7 13 10 18.5 0 0 5.2-.7 6.3-1.4l1.4-8.4-3.1-19.4z" fill="#e4af93" stroke-width="none" opacity="1" stroke="none"></path><path id="SvgjsPath11233" d="M53.3 90c-.2-.4-.8-1.9-.8-1.9 5.2.4 10.7 1.4 10.7 1.4l3 21.6-1.4 8.4c-1.1.7-6.3 1.4-6.3 1.4-.6-1-1.3-2.3-2.1-3.6l2.6 1 3-1.6s.7-11.2.5-11.5c-.1-.3-9-14.8-9.2-15.2z" fill="#d59574" stroke-width="none" opacity="1" stroke="none"></path><path id="SvgjsPath11234" d="m50.3 100.9 2.8-5.5 5.2 6.8 2.2 9.5-1.4 1.9-4.3-7.6 1-4.7-2.6-4z" fill="#c57e58" stroke-width="none" opacity="1" stroke="none"></path></g></g><g id="svga-group-ears-right-move" transform="matrix(1,0,0,1,0,0)"><g id="svga-group-ears-right"><path id="SvgjsPath11235" d="M136.9 91.8s6-.7 10.6-3.7c0 0 3.5 9.4 4 14.4 0 0-6.7 13-10 18.5 0 0-5.2-.7-6.3-1.4l-1.4-8.4 3.1-19.4z" fill="#e4af93" stroke-width="none" opacity="1" stroke="none"></path><path id="SvgjsPath11236" d="M146.7 90c.2-.4.8-1.9.8-1.9-5.2.4-10.7 1.4-10.7 1.4l-3 21.6 1.4 8.4c1.1.7 6.3 1.4 6.3 1.4.6-1 1.3-2.3 2.1-3.6l-2.6 1-3-1.6s-.7-11.2-.5-11.5c.1-.3 9-14.8 9.2-15.2z" fill="#d59574" stroke-width="none" opacity="1" stroke="none"></path><path id="SvgjsPath11237" d="m149.7 100.9-2.8-5.5-5.2 6.8-2.2 9.5 1.4 1.9 4.3-7.6-1-4.7 2.6-4z" fill="#c57e58" stroke-width="none" opacity="1" stroke="none"></path></g></g><g id="svga-group-faceshape-wrap"><g id="svga-group-faceshape-single"><path id="SvgjsPath11316" d="M138.1 60c-6.9-11.6-19.7-19.5-19.7-19.5-7.2-1.5-18.4-2.3-18.4-2.3s-11.1.8-18.4 2.3c0 0-12.8 7.9-19.7 19.5 0 0-5.1 14.5-5.3 24.8l4.9 33.9 14.2 24.8 16.9 11.7h14.9l16.9-11.7 14.2-24.8 4.9-33.9c-.3-10.3-5.4-24.8-5.4-24.8z" fill="#e4af93" stroke-width="none" opacity="1" stroke="none"></path><path id="SvgjsPath11317" d="m92.7 152.7-14.6-12.3s-11.4-20.9-11.8-21.7c-.4-.9-5-34.3-5-34.3.2-4.8 4.5-21.5 5-22.2 2.1-3.2 16.5-18 16.5-18l17.1-4.1 18.5.4c-7.2-1.5-18.4-2.3-18.4-2.3s-11.1.8-18.4 2.3c0 0-12.8 7.9-19.7 19.5 0 0-5.1 14.5-5.3 24.8l4.9 33.9 14.2 24.8 16.9 11.7h14.9l16.9-11.7-18 10.4-13.7-1.2z" fill="#c57e58" stroke-width="none" opacity="1" stroke="none"></path></g></g><g id="svga-group-mouth-single-move" transform="matrix(1,0,0,1,0,0)"><g id="svga-group-mouth-single"><path id="SvgjsPath14735" d="m84.99 125.5 2.75 3.94 12.37-.68 12.45.84 3.02-3.87-3.73 2.46-6.81-2.5-4.93 1.46-4.57-1.35-7.7 1.93z" fill="#da7c87" stroke-width="none" opacity="1" transform="translate(0 2)"></path><path id="SvgjsPath14736" d="m89.12 131.92 1.15 2.64 10.05 2.86 10.83-3.61-10.89 2.15-9.41-2.31-1.73-1.73z" fill="#c57e58" stroke-width="none" opacity="1" transform="translate(0 2)"></path></g></g><g id="svga-group-eyes-left-move" transform="matrix(1,0,0,1,0,0)"><g id="svga-group-eyes-left"><g id="svga-group-eyesback-left"><path id="SvgjsPath11272" d="M91.2 95.7 86 91.1l-9 .1-7 3.8s5.8 4.3 7.2 4.9l8.8-.4 5.2-3.8z" fill="#ffffff" stroke-width="none" opacity="1"></path></g><g id="svga-group-eyesiriswrapper-left" transform="matrix(1,0,0,1,0,0)"><g id="svga-group-eyesiriscontrol-left" transform="matrix(1,0,0,1,0,0)"><g id="svga-group-eyesiris-left"><path id="SvgjsPath11351" d="m76.8 98-.9-5.5 4.3-3.5 5.2 1.9.9 5.5-4.2 3.5z" fill="#4e60a3" stroke-width="none" opacity="1"></path><path id="SvgjsPath11352" d="m80.2 89.3 4.9 1.8.9 5.2-4 3.4-4.9-1.8-.9-5.2 4-3.4m-.1-.6-4.5 3.8 1 5.8 5.5 2 4.5-3.8-1-5.8-5.5-2z" fill="#253984" stroke-width="none" opacity="1"></path><path id="SvgjsPath11353" d="m78.1 95.4.7-3.1 3-.9 2.3 2.1-.6 3.1-3 .9z" fill="#000000" stroke-width="none" opacity="1"></path><path id="SvgjsPath11354" d="M79.1 91.9h1.8v1.8h-1.8v-1.8z" fill="#ffffff" stroke-width="none" opacity="1"></path><path id="SvgjsPath11355" d="M81.5 96.3h1v1h-1v-1z" fill="#ffffff" stroke-width="none" opacity="1"></path></g></g></g><g id="svga-group-eyesfront-left"><path id="SvgjsPath11280" d="M67.1 89.3v11.9l7.9 8.4h11.2l7.9-8.4V89.3l-7.9-8.4H75l-7.9 8.4zm3 5.7 7-3.8 9-.1 5.1 4.6-5.2 3.9-8.8.4c-1.3-.8-7.1-5-7.1-5z" fill="#e4af93" stroke-width="none" opacity="1" stroke="none"></path><path id="SvgjsPath11281" d="m91.7 96.1-1.2-.6-4.7-4.1H77l-7.2 4-1 .2 7.9-5 9.6-.1z" fill="#000000" stroke-width="none" opacity="1" stroke="none"></path><path id="SvgjsPath11282" d="m90.8 94-4-4.1-9.8-.1-8.1 3.6 8.1-3.1h9.7z" fill="#d59574" stroke-width="none" opacity="1" stroke="none"></path></g></g></g><g id="svga-group-eyes-right-move" transform="matrix(1,0,0,1,0,0)"><g id="svga-group-eyes-right"><g id="svga-group-eyesback-right"><path id="SvgjsPath11273" d="m108.8 95.7 5.1-4.6 9 .1 7 3.8s-5.8 4.3-7.2 4.9l-8.8-.4-5.1-3.8z" fill="#ffffff" stroke-width="none" opacity="1"></path></g><g id="svga-group-eyesiriswrapper-right" transform="matrix(1,0,0,1,0,0)"><g id="svga-group-eyesiriscontrol-right" transform="matrix(1,0,0,1,0,0)"><g id="svga-group-eyesiris-right"><path id="SvgjsPath11356" d="m114.6 98-.9-5.5 4.2-3.5 5.3 1.9.9 5.5-4.3 3.5z" fill="#4e60a3" stroke-width="none" opacity="1"></path><path id="SvgjsPath11357" d="m118 89.3 4.9 1.8.9 5.2-4 3.4-4.9-1.8-.9-5.2 4-3.4m-.1-.6-4.5 3.8 1 5.8 5.5 2 4.5-3.8-1-5.8-5.5-2z" fill="#253984" stroke-width="none" opacity="1"></path><path id="SvgjsPath11358" d="m115.9 95.4.6-3.1 3-.9 2.4 2.1-.7 3.1-3 .9z" fill="#000000" stroke-width="none" opacity="1"></path><path id="SvgjsPath11359" d="M116.9 91.9h1.8v1.8h-1.8v-1.8z" fill="#ffffff" stroke-width="none" opacity="1"></path><path id="SvgjsPath11360" d="M119.2 96.3h1v1h-1v-1z" fill="#ffffff" stroke-width="none" opacity="1"></path></g></g></g><g id="svga-group-eyesfront-right"><path id="SvgjsPath11283" d="M125 80.8h-11.2l-7.9 8.4v11.9l7.9 8.4H125l7.9-8.4V89.3l-7.9-8.5zm-2.3 19.1-8.8-.4-5.1-3.8 5.1-4.6 9 .1 7 3.8s-5.8 4.2-7.2 4.9z" fill="#e4af93" stroke-width="none" opacity="1" stroke="none"></path><path id="SvgjsPath11286" d="m108.3 96.1 1.2-.6 4.7-4.1h8.8l7.2 4 1 .2-7.9-5-9.6-.1z" fill="#000000" stroke-width="none" opacity="1" stroke="none"></path><path id="SvgjsPath11287" d="m109.2 94 4-4.1 9.8-.1 8.1 3.6-8.1-3.1h-9.7z" fill="#d59574" stroke-width="none" opacity="1" stroke="none"></path></g></g></g><g id="svga-group-facehighlight-single"></g><g id="svga-group-eyebrows-left-move" transform="matrix(1,0,0,1,0,0)"><g id="svga-group-eyebrows-left-rotate" transform="matrix(1,1.7453292519943295e-9,-1.7453292519943295e-9,1,1.4451326535436237e-7,-1.3849188462700113e-7)"><g id="svga-group-eyebrows-left"><path id="SvgjsPath11200" d="M74.2 77.6 71 79l-5 9 8.5-4.6 17.3 3.7.9-6z" fill="#2a232b" stroke-width="none" opacity="1"></path><path id="SvgjsPath11201" d="m87.9 84-1.2-4-1.7-.4 2.9 4.4zM73 78.2l5.6 4.6-4.4-5.2-1.2.6zm6.9.5 3.8 5-1.9-4.6-1.9-.4zm-11.7 5.4 2.7-1.5-2.1.5-.6 1zm14.7-4.8 1.7 1.9-.5-1.7-1.2-.2zm-12.4.7 3.8.8L71 79l-.5 1zm16.6.1 3.5 5.2-1.4-4.7-2.1-.5z" fill="#3a353a" stroke-width="none" opacity="1"></path></g></g></g><g id="svga-group-eyebrows-right-move" transform="matrix(1,0,0,1,0,0)"><g id="svga-group-eyebrows-right-rotate" transform="matrix(1,1.7453292519943295e-9,-1.7453292519943295e-9,1,1.4451326535436237e-7,-2.1057397248114285e-7)"><g id="svga-group-eyebrows-right"><path id="SvgjsPath11202" d="m107.3 81.1.9 6 17.3-3.7L134 88l-5-9-3.2-1.4z" fill="#2a232b" stroke-width="none" opacity="1"></path><path id="SvgjsPath11203" d="m115 79.6-1.7.3-1.2 4 2.9-4.3zm10.8-2-4.4 5.2 5.6-4.6-1.2-.6zm-7.6 1.5-1.9 4.6 3.8-5-1.9.4zm12.9 4-2.1-.5 2.7 1.5-.6-1zm-15.2-3.6-.5 1.7 1.7-1.9-1.2.2zM129 79l-3.2 1.8 3.8-.8-.6-1zm-18.2 1.5-1.4 4.7 3.5-5.2-2.1.5z" fill="#3a353a" stroke-width="none" opacity="1"></path></g></g></g><g id="svga-group-beardwrap"><g id="svga-group-beard-single-move" transform="matrix(1,0,0,1,0,0)"><g id="svga-group-beard-single"></g></g></g><g id="svga-group-mustache-single-move" transform="matrix(1,0,0,1,0,0)"><g id="svga-group-mustache-single"><path id="SvgjsPath13314" d="m99.8 120.7-.1 2.5-.5 1.3-10.3-.5-5.5-.5v-.7l9.5-1.9 6.9-.2zm1.1 0 .1 2.5.5 1.3 10.3-.5 5.6-.5v-.7l-9.6-1.9-6.9-.2z" fill="#2a232b" stroke-width="none" opacity="1" stroke="none"></path><path id="SvgjsPath13315" d="m99.1 121.2-1.8 1.5-.9 1.2 1.8-1.4.9-1.3zm-1.3.2s-1.5 1.2-1.6 1.2-3 1.2-3 1.2l2.3-1.2 2.3-1.2zm-3-.1-1.5 1.3-2.9 1.2 2.5-1.4 1.9-1.1zm1.5-.1-1.6 1 2.8-1h-1.2zm-3.8.4-2.9.9-2.1 1.1 2.6-.9 2.4-1.1zm-4.3.6c-.2.1-1.7.5-1.7.5l-.9.5 1.8-.5.8-.5zm-4.3.9 1.7-.4-.9.5-.8-.1zm17.7-1.9 1.8 1.5.9 1.2-1.8-1.4-.9-1.3zm1.3.2s1.5 1.2 1.6 1.2 3 1.2 3 1.2l-2.3-1.2-2.3-1.2zm3-.1 1.5 1.3 2.9 1.2-2.5-1.4-1.9-1.1zm-1.5-.1 1.6 1-2.8-1h1.2zm3.8.4 2.9.9 2.1 1.1-2.6-.9-2.4-1.1zm4.4.6c.2.1 1.7.5 1.7.5l.9.5-1.8-.5-.8-.5zm4.2.9-1.7-.4.9.5.8-.1z" fill="#3a353a" stroke-width="none" opacity="1" stroke="none"></path></g></g><g id="svga-group-nose-single-move" transform="matrix(1,0,0,1,0,0)"><g id="svga-group-nose-single"><path id="SvgjsPath11396" d="m96.12 99.91-.45 6.4-5.78 8.87 2.98 2.25 1.63-2.02 4.32 3.82h2.41l4.27-3.82 1.57 1.96 3.15-2.19-5.79-8.92-.56-6.46-3.82-1.63z" fill="#e4af93" stroke-width="none" opacity="1" transform="translate(0 1)" stroke="none"></path><path id="SvgjsPath11397" d="m104.86 106.44-1.95-15.67 1.1 14.55-.86-.22 6.58 10.06-2.34 1.73-1.28-1.51.28-1.34-5.15 4.47h-2.4l-5.15-4.47.29 1.34-1.29 1.51-2.34-1.73 6.59-10.06-.86.22 1.33-22.81-2.19 23.93-5.82 8.83 3.81 2.79 1.44-2.01 4.19 3.91h2.4l4.2-3.91 1.43 2.01 3.81-2.79z" fill="#c57e58" stroke-width="none" opacity="1" transform="translate(0 1)" stroke="none"></path><path id="SvgjsPath11398" d="m96.15 113.17 2.37 1.46 3.1.06 2.55-1.16-.3-1.76-3.59-.6-3.94.66z" fill="#ecbda4" stroke-width="none" opacity="1" transform="translate(0 1)" stroke="none"></path></g></g><g id="svga-group-hair-front"><path id="SvgjsPath12945" d="m99.5 63.6-9.3-2.3-5-1.4-5.1-1.7-7.3-1.8-6.5 8.8-3 18.8-3 9.3-4.2-5.7-.4-10.7 1.2-15.1 7.3-12.1-1.1-6.2 3.9-9.7.4-6.5 3 7.7-1.2-7.3 3.6-7.2v4.6l1.8 3.6-.4-4 4.5 5.3 6.8 2-5.8-3.9-1.6-4.4 4.6 3 4 .4-2.8-3.6 5.9 3 21.1 2.6 4.9 3.5 10.3 4.8 1.8 3.2 4.6 4.3.8 4.2 8.5 6.8 2.4 19.2-.2 13.7-5.2 6.3-2.3-9.1-2-23.6L125 55l-14.8 6.1z" fill="#1b161b" stroke-width="none" opacity="1" stroke="none"></path><path id="SvgjsPath12946" d="m99.5 63.6-18.2-9L70.4 35l-1.2-7.3 3.6-7.3V25l1.8 3.6 10.5 9.5 11.4 7.7 1 14.1 2 3.7zm-26.7-7.2-8.6-6.7-1.1-6.2 3.9-9.7 5.3 15.7 14.5 10.7-14-3.8zm5.3-32.7 1.6 4.4 5.8 3.8 20.4 5.9 4.9 10.9-4.2 11.9-7.2 2.8 10.7-2.5s9.7-17.1 9.7-17.9-6.7-10-6.7-10l-28.2-4.2-4.9-2-1.9-3.1zm55.2 25.4L125 55l-10.1 4 10.5-9.2 2.4-9.2 4.6 4.2.9 4.3zm1.2 13.3 3.4-2.2 3.9-4.3-3.9 12.8-2.6 4.4-.8-10.7zm-68.2 2.8-3 18.8-6.5-22.2 6-9.7 3.5 13.1z" fill="#130f13" stroke-width="none" opacity="1" stroke="none"></path><path id="SvgjsPath12947" d="m79.3 31 25.5 7.1 6.1 10.8-4.3 11.9-6.7-17.1-15.1-7.5-5.5-5.2zm35.2 26.2 11-7.3 2.4-9.2-1.8-3.2-10.3-4.8 7.2 8.7-.6 5.2-7.9 10.6z" fill="#231e23" stroke-width="none" opacity="1" stroke="none"></path></g><g id="svga-group-glasses-single-move" transform="matrix(1,0,0,1,0,0)"><g id="svga-group-glasses-single"><path id="SvgjsPath11425" d="m68.89 87.2-4.4 3.69 1.1 15.21 5.83 4.66h12.56l5.76-2.65 4.72-7.12 2.53-7.12-.39-6.48z" fill="url(#SvgjsLinearGradient11426)" opacity="1"></path><path id="SvgjsPath11433" d="m131.11 87.2 4.4 3.69-1.1 15.21-5.83 4.66h-12.56l-5.76-2.65-4.72-7.12-2.53-7.12.39-6.48z" fill="url(#SvgjsLinearGradient11434)" opacity="1"></path><path id="SvgjsPath11441" d="m134.76 86.11-10.94-1.05-10.94.19-12.17.57h-1.42l-12.17-.57-10.94-.19-10.94 1.05-3.04 2.47 1.81 15.88 1.71 4.18 4.9 2.96 13.64.18 5.14-1.9 5.99-8.65 2.76-5.14 1.14-1.05h1.42l1.14 1.05 2.76 5.14 5.99 8.65 5.14 1.9 13.64-.18 4.9-2.96 1.71-4.18 1.81-15.88-3.04-2.47zm-42.43 16.85-4.01 5.24-4.44 1.67-12.33-.33-3.74-2.26-1.62-3.99-.37-10.02 2.62-4.15 6.92-1.53 14.78 1.46 4.08 1.89 1.24 3.86-3.13 8.16zm41.48.33-1.62 3.99-3.74 2.26-12.33.33-4.44-1.67-4.01-5.24-3.13-8.16 1.24-3.86 4.08-1.89 14.78-1.46 6.92 1.53 2.62 4.15-.37 10.02z" fill="#26120b" stroke-width="none" opacity="1" stroke="none"></path><path id="SvgjsPath11442" d="m137.83 88.54-3.07-2.45-10.93-1.14h-.02c-3.97.07-7.95.08-11.92.19-3.97.16-7.94.38-11.9.48-1.98-.03-3.96-.18-5.95-.27l-5.94-.25c-3.97-.11-7.95-.13-11.92-.19h-.02L65.23 86h-.04l-.03.02-3.03 2.48-.05.04.01.06c.63 5.29 1.24 10.58 1.82 15.88v.01l.01.01 1.7 4.19.01.03.03.02 4.89 2.98.03.02h.04l13.64.23h.03l.03-.01 5.14-1.88.06-.02.04-.05 6.01-8.64.01-.01.01-.01 2.74-5.1 1.05-.96h1.24l1.04.96 2.74 5.1.01.01.01.01 5.99 8.66.04.06.07.03 5.13 1.91.04.02h.05l13.64-.22h.06l.05-.03 4.89-2.98.05-.03.02-.05 1.69-4.19.01-.02v-.02l1.71-15.89v-.03l-.03-.05zm-1.99 15.89-1.7 4.1-4.82 2.88-13.54.13-5.02-1.86-5.94-8.58-2.75-5.12-.02-.04-.03-.03-1.14-1.05-.07-.06h-1.6l-.07.06L98 95.91l-.03.03-.02.03-2.75 5.13-5.93 8.6-5.03 1.89-13.57-.12-4.85-2.91-1.71-4.13c-.63-5.27-1.22-10.54-1.79-15.81l2.98-2.4 10.89-1c3.97.1 7.94.14 11.9.28 3.97.19 7.93.42 11.91.52 3.98-.13 7.94-.38 11.91-.57 3.97-.14 7.94-.18 11.91-.28l10.93.95 2.99 2.47-1.9 15.84z" fill="#000000" stroke-width="none" opacity="1" stroke="none"></path><path id="SvgjsPath11443" d="m94.42 90.88-.03-.08-.08-.04-4.06-1.94-.04-.02h-.04c-4.93-.5-9.85-.99-14.78-1.44h-.04l-.04.01-6.91 1.59-.07.02-.04.06-2.58 4.18-.02.04v.04c.13 3.34.33 6.68.4 10.02v.02l.01.02 1.59 4 .02.04.04.02 3.72 2.31.04.02h.05c4.11.17 8.22.26 12.33.32h.04l.03-.01 4.43-1.71.04-.01.02-.03c1.34-1.76 2.62-3.54 3.92-5.31 1.1-2.69 2.19-5.39 3.26-8.11l.02-.05-.02-.05-1.21-3.91zm-2.11 12.06c-1.36 1.72-2.74 3.41-4.07 5.14l-4.39 1.61c-4.08-.15-8.16-.29-12.25-.34l-3.69-2.18-1.64-3.91c-.17-3.32-.22-6.64-.33-9.96l2.6-4.03 6.82-1.45c4.9.52 9.8.99 14.71 1.46l3.98 1.8 1.23 3.71c-1 2.71-1.99 5.42-2.97 8.15z" fill="#000000" stroke-width="none" opacity="1" stroke="none"></path><path id="SvgjsPath11444" d="m131.74 89-.05-.08-.09-.02c-2.3-.54-4.61-1.05-6.91-1.56l-.04-.01h-.04c-4.93.47-9.85.99-14.78 1.51h-.04l-.03.01-4.06 1.93-.06.03-.02.06-1.2 3.87-.01.04.02.04c1.05 2.72 2.16 5.41 3.16 8.15v.01l.01.01 3.96 5.28.03.03.04.02 4.42 1.72.04.01h.04c4.11-.07 8.22-.25 12.33-.39h.04l.03-.02 3.72-2.3.03-.02.01-.03 1.54-4.03c.2-3.33.36-6.67.51-10.02v-.05l-.03-.05-2.57-4.14zm2.04 14.29-1.69 3.91-3.69 2.19c-4.08.09-8.17.12-12.25.27l-4.38-1.6-4.02-5.16c-1.08-2.68-2.06-5.41-3.09-8.11l1.24-3.74 4-1.81c4.91-.44 9.81-.89 14.72-1.39 2.26.49 4.53 1 6.8 1.47l2.59 4c-.1 3.31-.18 6.63-.23 9.97z" fill="#000000" stroke-width="none" opacity="1" stroke="none"></path></g></g></g></g></g><rect id="svga-credit-rect" width="200" height="15" x="0" y="185" fill="#ecf0f1" opacity="0.5" style="display: none;"></rect><text id="svga-credit-text" font-family="Avenir Next, Roboto, Helvetica, Arial, sans-serif" font-size="10px" text-anchor="start" font-weight="400" size="10px" anchor="start" weight="400" fill="#333333" x="33.402061462402344" y="182.71133995056152" style="display: none;"><tspan id="SvgjsTspan11194" dy="13" x="33.402061462402344">Created on AvatarMaker.com</tspan></text></g><defs id="SvgjsDefs11141"><linearGradient id="SvgjsLinearGradient11426" x1="80.7397" y1="87.2001" x2="80.7397" y2="110.7612" gradientUnits="userSpaceOnUse" class="svga-on-canvas-glasses-gradient-single-0-null"><stop id="SvgjsStop11427" stop-opacity="1" stop-color="#3d2d1c" offset="0.0208" ></stop><stop id="SvgjsStop11428" stop-opacity="0.6291" stop-color="#402e1c" offset="0.3825" ></stop><stop id="SvgjsStop11429" stop-opacity="0.3897" stop-color="#48321d" offset="0.6159" ></stop><stop id="SvgjsStop11430" stop-opacity="0.1881" stop-color="#57381f" offset="0.8124" ></stop><stop id="SvgjsStop11431" stop-opacity="7.593334e-03" stop-color="#6c4221" offset="0.9884" ></stop><stop id="SvgjsStop11432" stop-opacity="0" stop-color="#6d4221" offset="0.9958" ></stop></linearGradient><linearGradient id="SvgjsLinearGradient11434" x1="-21.2603" y1="87.2001" x2="-21.2603" y2="110.7612" gradientTransform="matrix(-1 0 0 1 98 0)" gradientUnits="userSpaceOnUse" class="svga-on-canvas-glasses-gradient-single-1-null"><stop id="SvgjsStop11435" stop-opacity="1" stop-color="#3d2d1c" offset="0.0208" ></stop><stop id="SvgjsStop11436" stop-opacity="0.6291" stop-color="#402e1c" offset="0.3825" ></stop><stop id="SvgjsStop11437" stop-opacity="0.3897" stop-color="#48321d" offset="0.6159" ></stop><stop id="SvgjsStop11438" stop-opacity="0.1881" stop-color="#57381f" offset="0.8124" ></stop><stop id="SvgjsStop11439" stop-opacity="7.593334e-03" stop-color="#6c4221" offset="0.9884" ></stop><stop id="SvgjsStop11440" stop-opacity="0" stop-color="#6d4221" offset="0.9958" ></stop></linearGradient></defs></svg>